{"title":"Revolution OS [2001]","uid":11887442,"size":483409046,"categoryP":"video","categoryS":"movies","magnet":"?xt=urn:btih:8303be16d52fe3bef7b0817836869d94ac774887&amp;dn=Revolution+OS+%5B2001%5D&amp;tr=udp%3A%2F%2Ftracker.openbittorrent.com%3A80&amp;tr=udp%3A%2F%2Fopen.demonii.com%3A1337&amp;tr=udp%3A%2F%2Ftracker.coppersurfer.tk%3A6969&amp;tr=udp%3A%2F%2Fexodus.desync.com%3A6969","seeders":1,"leechers":0,"uploader":"YaMoonSun","files":1,"time":1430883514,"description":"Format                                   : MPEG-4\nFormat profile                           : Base Media / Version 2\nCodec ID                                 : mp42\nFile size                                : 461 MiB\nDuration                                 : 1h 25mn\nOverall bit rate mode                    : Variable\nOverall bit rate                         : 758 Kbps\n\nVideo\nID                                       : 1\nFormat                                   : AVC\nFormat/Info                              : Advanced Video Codec\nFormat profile                           : Main@L3\nFormat settings, CABAC                   : Yes\nFormat settings, ReFrames                : 4 frames\nCodec ID                                 : avc1\nCodec ID/Info                            : Advanced Video Coding\nDuration                                 : 1h 25mn\nBit rate                                 : 590 Kbps\nWidth                                    : 720 pixels\nHeight                                   : 480 pixels\nDisplay aspect ratio                     : 4:3\nOriginal display aspect ratio            : 4:3\nFrame rate mode                          : Variable\nFrame rate                               : 24.154 fps\nMinimum frame rate                       : 19.978 fps\nMaximum frame rate                       : 29.970 fps\nStandard                                 : NTSC\nColor space                              : YUV\nChroma subsampling                       : 4:2:0\nBit depth                                : 8 bits\nScan type                                : Progressive\nBits/(Pixel*Frame)                       : 0.071\nStream size                              : 359 MiB (78%)\nWriting library                          : x264 core 142 r2479 dd79a61\nColor range                              : Limited\nColor primaries                          : BT.601 NTSC\nTransfer characteristics                 : BT.709\nMatrix coefficients                      : BT.601\n\nAudio\nID                                       : 2\nFormat                                   : AAC\nFormat/Info                              : Advanced Audio Codec\nFormat profile                           : LC\nCodec ID                                 : 40\nDuration                                 : 1h 25mn\nBit rate mode                            : Variable\nBit rate                                 : 160 Kbps\nChannel(s)                               : 2 channels\nChannel positions                        : Front: L R\nSampling rate                            : 48.0 KHz\nCompression mode                         : Lossy\nStream size                              : 97.4 MiB (21%)\nTitle                                    : Stereo / Stereo\n\nMenu\nID                                       : 3\nCodec ID                                 : text\nDuration                                 : 1h 25mn\nLanguage                                 : English\n00:00:00.000                             : Chapter 1\n00:01:51.094                             : Chapter 2\n00:03:39.619                             : Chapter 3\n00:06:35.579                             : Chapter 4\n00:09:19.492                             : Chapter 5\n00:12:17.637                             : Chapter 6\n00:12:44.948                             : Chapter 7\n00:15:06.089                             : Chapter 8\n00:19:20.543                             : Chapter 9\n00:22:36.839                             : Chapter 10\n00:26:22.564                             : Chapter 11\n00:31:57.382                             : Chapter 12\n00:34:48.587                             : Chapter 13\n00:37:05.407                             : Chapter 14\n00:38:21.716                             : Chapter 15\n00:39:59.247                             : Chapter 16\n00:45:42.523                             : Chapter 17\n00:49:46.183                             : Chapter 18\n00:53:03.430                             : Chapter 19\n00:56:02.376                             : Chapter 20\n00:58:19.196                             : Chapter 21\n00:59:15.168                             : Chapter 22\n01:02:41.875                             : Chapter 23\n01:06:04.477                             : Chapter 24\n01:09:33.086                             : Chapter 25\n01:11:41.214                             : Chapter 26\n01:15:28.474                             : Chapter 27\n01:16:06.512                             : Chapter 28\n01:20:00.296                             : Chapter 29\n01:20:39.835                             : Chapter 30\n01:21:20.776                             : Chapter 31\n01:24:03.572                             : Chapter 32\nBit rate mode                            : VBR","torrent":{"xt":"urn:btih:8303be16d52fe3bef7b0817836869d94ac774887","amp;dn":"Revolution+OS+%5B2001%5D","amp;tr":["udp%3A%2F%2Ftracker.openbittorrent.com%3A80","udp%3A%2F%2Fopen.demonii.com%3A1337","udp%3A%2F%2Ftracker.coppersurfer.tk%3A6969","udp%3A%2F%2Fexodus.desync.com%3A6969"],"infoHash":"8303be16d52fe3bef7b0817836869d94ac774887","infoHashBuffer":{"type":"Buffer","data":[131,3,190,22,213,47,227,190,247,176,129,120,54,134,157,148,172,119,72,135]},"announce":[],"urlList":[]}}